HIERARCHY
ROOT SimulationBone
{
	OFFSET 0.000000 0.000000 0.000000
	CHANNELS 6 Xposition Yposition Zposition Zrotation Yrotation Xrotation 
	JOINT Hips
	{
		OFFSET 0.000000 0.000000 0.000000
		CHANNELS 6 Xposition Yposition Zposition Zrotation Yrotation Xrotation 
		JOINT LeftUpLeg
		{
			OFFSET 0.103458 1.857842 10.548504
			CHANNELS 3 Zrotation Yrotation Xrotation
			JOINT LeftLeg
			{
				OFFSET 43.500000 -0.000038 0.000000
				CHANNELS 3 Zrotation Yrotation Xrotation
				JOINT LeftFoot
				{
					OFFSET 42.372200 0.000008 0.000004
					CHANNELS 3 Zrotation Yrotation Xrotation
					JOINT LeftToe
					{
						OFFSET 17.299992 -0.000003 -0.000013
						CHANNELS 3 Zrotation Yrotation Xrotation
						End Site
						{
							OFFSET 0.000000 0.000000 0.000000
						}
					}
				}
			}
		}
		JOINT RightUpLeg
		{
			OFFSET 0.103456 1.857816 -10.548503
			CHANNELS 3 Zrotation Yrotation Xrotation
			JOINT RightLeg
			{
				OFFSET 43.500042 -0.000023 0.000008
				CHANNELS 3 Zrotation Yrotation Xrotation
				JOINT RightFoot
				{
					OFFSET 42.372265 -0.000008 0.000010
					CHANNELS 3 Zrotation Yrotation Xrotation
					JOINT RightToe
					{
						OFFSET 17.300022 0.000005 0.000000
						CHANNELS 3 Zrotation Yrotation Xrotation
						End Site
						{
							OFFSET 0.000000 0.000000 0.000000
						}
					}
				}
			}
		}
		JOINT Spine
		{
			OFFSET 6.901966 -2.603735 -0.000002
			CHANNELS 3 Zrotation Yrotation Xrotation
			JOINT Spine1
			{
				OFFSET 12.588103 0.000016 0.000000
				CHANNELS 3 Zrotation Yrotation Xrotation
				JOINT Spine2
				{
					OFFSET 12.343200 0.000002 -0.000002
					CHANNELS 3 Zrotation Yrotation Xrotation
					JOINT Neck
					{
						OFFSET 25.832891 -0.000029 0.000006
						CHANNELS 3 Zrotation Yrotation Xrotation
						JOINT Head
						{
							OFFSET 11.766613 0.000029 -0.000002
							CHANNELS 3 Zrotation Yrotation Xrotation
							End Site
							{
								OFFSET 0.000000 0.000000 0.000000
							}
						}
					}
					JOINT LeftShoulder
					{
						OFFSET 19.745903 -1.480385 6.000109
						CHANNELS 3 Zrotation Yrotation Xrotation
						JOINT LeftArm
						{
							OFFSET 11.284124 -0.000024 -0.000022
							CHANNELS 3 Zrotation Yrotation Xrotation
							JOINT LeftForeArm
							{
								OFFSET 33.000057 0.000000 0.000033
								CHANNELS 3 Zrotation Yrotation Xrotation
								JOINT LeftHand
								{
									OFFSET 25.199997 0.000045 -0.000004
									CHANNELS 3 Zrotation Yrotation Xrotation
									End Site
									{
										OFFSET 0.000000 0.000000 0.000000
									}
								}
							}
						}
					}
					JOINT RightShoulder
					{
						OFFSET 19.746105 -1.480396 -6.000069
						CHANNELS 3 Zrotation Yrotation Xrotation
						JOINT RightArm
						{
							OFFSET 11.284142 -0.000028 -0.000010
							CHANNELS 3 Zrotation Yrotation Xrotation
							JOINT RightForeArm
							{
								OFFSET 33.000084 0.000033 0.000011
								CHANNELS 3 Zrotation Yrotation Xrotation
								JOINT RightHand
								{
									OFFSET 25.199783 0.000119 0.000426
									CHANNELS 3 Zrotation Yrotation Xrotation
									End Site
									{
										OFFSET 0.000000 0.000000 0.000000
									}
								}
							}
						}
					}
				}
			}
		}
	}
}
MOTION
Frames: 5
Frame Time: 0.016667
-95.865189 0.000000 615.100834 0.000000 7.126364 0.000000 0.947820 91.480709 -0.466201 97.580199 0.408847 179.942780 165.226718 -7.812440 173.272382 -63.930530 -4.242278 4.022622 78.205484 -3.622600 -3.427938 21.454546 0.003091 -0.000000 178.325893 -1.657681 -178.489325 -24.773098 1.944703 0.138138 85.847163 -0.685336 -2.804580 21.454558 -0.003109 -0.000018 9.162197 0.782608 0.249063 8.316001 1.545239 0.553706 7.997807 1.548692 0.544369 19.857603 6.352978 8.257649 -20.324866 -13.096108 13.915212 -169.653662 -81.897350 -12.046413 -10.302130 63.108142 41.667876 -34.781281 -17.663259 1.502155 3.204393 -13.810766 0.821931 163.466027 74.299639 -15.521879 -11.144005 -53.809925 -34.593585 -34.574312 19.419552 -1.637463 5.431118 11.367602 -4.373907 
-94.683774 0.000000 614.979062 0.000000 7.105075 0.000000 0.982244 91.434143 -0.412310 97.598088 0.490708 -179.898971 164.178159 -7.772202 173.427915 -61.170654 -4.595373 3.584972 79.017699 -3.274711 -3.431597 21.454545 0.003093 -0.000001 179.192458 -1.755203 -178.401044 -24.728002 2.046251 0.173681 86.400424 -0.707579 -2.854645 21.454555 -0.003108 -0.000017 9.148693 0.793878 0.273019 8.289427 1.566108 0.602192 7.971217 1.569853 0.592728 19.950276 6.208577 8.178384 -20.326448 -13.008360 13.794994 -169.639194 -81.852678 -12.061025 -10.344789 63.122305 41.628478 -34.881393 -17.757585 1.510528 3.268816 -14.083259 0.569717 163.225292 74.312488 -15.767378 -11.097842 -53.800592 -34.634184 -34.998564 19.402332 -1.646069 5.248071 11.437843 -4.501196 
-93.491179 0.000000 614.834961 0.000000 7.075140 0.000000 0.998327 91.396828 -0.346774 97.595494 0.582994 -179.740906 163.380596 -7.672937 173.453585 -57.928483 -4.775379 3.160006 79.949855 -2.906609 -3.316583 21.454547 0.003095 -0.000002 -179.899188 -1.863515 -178.180108 -24.549467 2.087419 0.129697 86.868686 -0.675127 -2.897910 21.454557 -0.003107 -0.000017 9.130440 0.814157 0.289290 8.253308 1.605559 0.635899 7.935095 1.609508 0.626197 20.032154 5.986781 8.118543 -20.333822 -12.912281 13.695144 -169.492858 -81.709265 -12.209082 -10.360397 63.103576 41.617201 -35.013139 -17.866372 1.520610 3.352930 -14.074381 0.606198 162.657792 74.369321 -16.344885 -10.979136 -53.777845 -34.859502 -35.487057 19.461865 -1.661241 5.084146 11.377495 -4.676738 
-92.284584 0.000000 614.666967 0.000000 7.037836 0.000000 1.008641 91.332451 -0.270643 97.584980 0.734934 -179.581209 162.754829 -7.562502 173.356321 -54.352609 -4.752747 2.747381 80.749357 -2.531564 -3.076325 21.454553 0.003094 -0.000002 -178.989793 -2.025803 -177.915076 -24.366159 2.114095 0.052499 87.329971 -0.618837 -2.935352 21.454560 -0.003107 -0.000017 9.108990 0.847059 0.303163 8.210862 1.670424 0.665655 7.892646 1.674552 0.655560 20.111308 5.768321 8.083617 -20.352309 -12.839682 13.633049 -169.278820 -81.521162 -12.425755 -10.329077 63.065395 41.656990 -35.145666 -17.958297 1.529601 3.367422 -13.945321 0.829892 161.904033 74.421198 -17.112768 -10.820841 -53.722981 -35.170484 -35.995386 19.534498 -1.678445 4.922012 11.255032 -4.844550 
-91.065177 0.000000 614.475084 0.000000 6.994165 0.000000 1.029626 91.213651 -0.186894 97.579117 0.978057 -179.420457 162.204037 -7.483371 173.158266 -50.585520 -4.519684 2.328539 81.065241 -2.181432 -2.853643 21.454557 0.003088 0.000000 -178.106937 -2.265057 -177.713079 -24.278271 2.175031 -0.002950 87.847701 -0.575169 -2.965493 21.454559 -0.003108 -0.000018 9.086254 0.892343 0.320600 8.166025 1.759792 0.703367 7.847795 1.764146 0.692731 20.191186 5.644571 8.075438 -20.388848 -12.824558 13.623062 -169.066013 -81.359152 -12.641314 -10.245450 63.029355 41.764276 -35.247052 -17.998742 1.534354 3.235971 -13.878946 1.124988 161.175704 74.411040 -17.857327 -10.669508 -53.610171 -35.450549 -36.477071 19.547428 -1.691213 4.740008 11.167172 -4.961529 
